<svg width="1440" height="905" viewBox="0 0 1440 905" fill="none" xmlns="http://www.w3.org/2000/svg">
<rect y="-1" width="1440" height="906" fill="#D9D9D9" fill-opacity="0.7"/>
<path d="M363 182C363 170.954 371.954 162 383 162H1014C1025.05 162 1034 170.954 1034 182V723C1034 734.046 1025.05 743 1014 743H383C371.954 743 363 734.046 363 723V182Z" fill="white"/>
<path d="M531.004 391V374.9H536.777C538.127 374.9 539.284 375.115 540.25 375.544C541.216 375.973 541.96 376.594 542.481 377.407C543.003 378.204 543.263 379.178 543.263 380.328C543.263 381.447 543.003 382.413 542.481 383.226C541.96 384.023 541.216 384.644 540.25 385.089C539.284 385.518 538.127 385.733 536.777 385.733H531.648L532.177 385.181V391H531.004ZM542.182 391L537.996 385.158H539.33L543.516 391H542.182ZM532.177 385.25L531.648 384.698H536.777C538.51 384.698 539.821 384.315 540.71 383.548C541.615 382.781 542.067 381.708 542.067 380.328C542.067 378.933 541.615 377.859 540.71 377.108C539.821 376.341 538.51 375.958 536.777 375.958H531.648L532.177 375.383V385.25ZM552.066 391.092C551.039 391.092 550.149 390.908 549.398 390.54C548.647 390.157 548.064 389.589 547.65 388.838C547.251 388.071 547.052 387.128 547.052 386.009V378.994H548.202V385.917C548.202 387.266 548.547 388.294 549.237 388.999C549.927 389.704 550.901 390.057 552.158 390.057C553.063 390.057 553.845 389.865 554.504 389.482C555.163 389.099 555.669 388.562 556.022 387.872C556.375 387.167 556.551 386.339 556.551 385.388V378.994H557.701V391H556.597V387.665L556.758 388.056C556.405 388.991 555.815 389.735 554.987 390.287C554.174 390.824 553.201 391.092 552.066 391.092ZM570.143 391V388.263L570.097 387.849V383.341C570.097 382.222 569.79 381.371 569.177 380.788C568.579 380.205 567.697 379.914 566.532 379.914C565.704 379.914 564.929 380.06 564.209 380.351C563.503 380.627 562.898 380.987 562.392 381.432L561.817 380.604C562.415 380.067 563.135 379.653 563.979 379.362C564.822 379.055 565.704 378.902 566.624 378.902C568.111 378.902 569.253 379.278 570.051 380.029C570.848 380.78 571.247 381.9 571.247 383.387V391H570.143ZM565.819 391.092C564.929 391.092 564.155 390.954 563.496 390.678C562.852 390.387 562.353 389.98 562.001 389.459C561.663 388.938 561.495 388.34 561.495 387.665C561.495 387.052 561.633 386.5 561.909 386.009C562.2 385.503 562.675 385.097 563.335 384.79C563.994 384.468 564.876 384.307 565.98 384.307H570.396V385.204H566.003C564.761 385.204 563.887 385.434 563.381 385.894C562.89 386.354 562.645 386.929 562.645 387.619C562.645 388.386 562.936 388.999 563.519 389.459C564.101 389.919 564.922 390.149 565.98 390.149C566.992 390.149 567.843 389.919 568.533 389.459C569.238 388.999 569.759 388.332 570.097 387.458L570.419 388.24C570.097 389.114 569.545 389.812 568.763 390.333C567.996 390.839 567.015 391.092 565.819 391.092ZM583.709 391.115C582.835 391.115 582.015 390.916 581.248 390.517C580.497 390.103 579.891 389.536 579.431 388.815L580.144 388.033C580.589 388.692 581.11 389.198 581.708 389.551C582.321 389.888 582.988 390.057 583.709 390.057C585.84 390.057 586.906 388.792 586.906 386.262V375.958H580.972V374.9H588.079V386.262C588.079 387.872 587.711 389.083 586.975 389.896C586.239 390.709 585.15 391.115 583.709 391.115ZM597.882 391.092C596.732 391.092 595.705 390.831 594.8 390.31C593.911 389.789 593.198 389.068 592.661 388.148C592.14 387.228 591.879 386.178 591.879 384.997C591.879 383.801 592.14 382.751 592.661 381.846C593.198 380.926 593.911 380.205 594.8 379.684C595.705 379.163 596.732 378.902 597.882 378.902C599.032 378.902 600.059 379.163 600.964 379.684C601.869 380.205 602.582 380.926 603.103 381.846C603.624 382.751 603.885 383.801 603.885 384.997C603.885 386.178 603.624 387.228 603.103 388.148C602.582 389.068 601.869 389.789 600.964 390.31C600.059 390.831 599.032 391.092 597.882 391.092ZM597.882 390.057C598.802 390.057 599.63 389.85 600.366 389.436C601.102 389.007 601.677 388.409 602.091 387.642C602.505 386.875 602.712 385.994 602.712 384.997C602.712 383.985 602.505 383.103 602.091 382.352C601.677 381.585 601.102 380.995 600.366 380.581C599.63 380.152 598.802 379.937 597.882 379.937C596.962 379.937 596.134 380.152 595.398 380.581C594.677 380.995 594.102 381.585 593.673 382.352C593.259 383.103 593.052 383.985 593.052 384.997C593.052 385.994 593.259 386.875 593.673 387.642C594.102 388.409 594.677 389.007 595.398 389.436C596.134 389.85 596.962 390.057 597.882 390.057ZM610.489 391.092C609.492 391.092 608.557 390.946 607.683 390.655C606.824 390.364 606.157 389.996 605.682 389.551L606.211 388.631C606.671 389.03 607.284 389.375 608.051 389.666C608.817 389.942 609.645 390.08 610.535 390.08C611.792 390.08 612.697 389.873 613.249 389.459C613.801 389.045 614.077 388.501 614.077 387.826C614.077 387.335 613.931 386.952 613.64 386.676C613.364 386.385 612.988 386.162 612.513 386.009C612.037 385.856 611.516 385.733 610.949 385.641C610.381 385.534 609.814 385.419 609.247 385.296C608.679 385.173 608.158 384.997 607.683 384.767C607.207 384.537 606.824 384.223 606.533 383.824C606.257 383.41 606.119 382.866 606.119 382.191C606.119 381.578 606.287 381.026 606.625 380.535C606.962 380.044 607.468 379.653 608.143 379.362C608.817 379.055 609.661 378.902 610.673 378.902C611.424 378.902 612.175 379.009 612.927 379.224C613.693 379.439 614.314 379.722 614.79 380.075L614.261 380.995C613.755 380.612 613.187 380.336 612.559 380.167C611.93 379.998 611.294 379.914 610.65 379.914C609.484 379.914 608.626 380.129 608.074 380.558C607.537 380.987 607.269 381.524 607.269 382.168C607.269 382.674 607.407 383.08 607.683 383.387C607.974 383.678 608.357 383.908 608.833 384.077C609.308 384.23 609.829 384.361 610.397 384.468C610.964 384.56 611.531 384.667 612.099 384.79C612.666 384.913 613.187 385.089 613.663 385.319C614.138 385.534 614.514 385.84 614.79 386.239C615.081 386.622 615.227 387.144 615.227 387.803C615.227 388.462 615.043 389.037 614.675 389.528C614.322 390.019 613.793 390.402 613.088 390.678C612.382 390.954 611.516 391.092 610.489 391.092ZM623.312 391.092C622.101 391.092 621.027 390.831 620.092 390.31C619.172 389.789 618.444 389.068 617.907 388.148C617.386 387.228 617.125 386.178 617.125 384.997C617.125 383.801 617.37 382.751 617.861 381.846C618.367 380.926 619.057 380.205 619.931 379.684C620.805 379.163 621.786 378.902 622.875 378.902C623.964 378.902 624.937 379.155 625.796 379.661C626.67 380.167 627.352 380.88 627.843 381.8C628.349 382.705 628.602 383.755 628.602 384.951C628.602 384.997 628.594 385.051 628.579 385.112C628.579 385.158 628.579 385.212 628.579 385.273H617.976V384.376H627.958L627.498 384.813C627.513 383.878 627.314 383.042 626.9 382.306C626.501 381.555 625.957 380.972 625.267 380.558C624.577 380.129 623.78 379.914 622.875 379.914C621.986 379.914 621.188 380.129 620.483 380.558C619.793 380.972 619.249 381.555 618.85 382.306C618.451 383.042 618.252 383.885 618.252 384.836V385.043C618.252 386.024 618.467 386.898 618.896 387.665C619.341 388.416 619.946 389.007 620.713 389.436C621.48 389.85 622.354 390.057 623.335 390.057C624.102 390.057 624.815 389.919 625.474 389.643C626.149 389.367 626.716 388.945 627.176 388.378L627.843 389.137C627.322 389.781 626.662 390.272 625.865 390.609C625.083 390.931 624.232 391.092 623.312 391.092ZM621.564 377.039L624.761 374.325H626.417L622.806 377.039H621.564ZM642.69 391.092C641.571 391.092 640.559 390.839 639.654 390.333C638.765 389.812 638.059 389.091 637.538 388.171C637.017 387.251 636.756 386.193 636.756 384.997C636.756 383.786 637.017 382.728 637.538 381.823C638.059 380.903 638.765 380.19 639.654 379.684C640.559 379.163 641.571 378.902 642.69 378.902C643.748 378.902 644.699 379.147 645.542 379.638C646.401 380.129 647.075 380.826 647.566 381.731C648.072 382.636 648.325 383.724 648.325 384.997C648.325 386.239 648.08 387.32 647.589 388.24C647.098 389.16 646.424 389.865 645.565 390.356C644.722 390.847 643.763 391.092 642.69 391.092ZM642.759 390.057C643.679 390.057 644.499 389.85 645.22 389.436C645.956 389.007 646.531 388.409 646.945 387.642C647.374 386.875 647.589 385.994 647.589 384.997C647.589 383.985 647.374 383.103 646.945 382.352C646.531 381.585 645.956 380.995 645.22 380.581C644.499 380.152 643.679 379.937 642.759 379.937C641.839 379.937 641.011 380.152 640.275 380.581C639.554 380.995 638.979 381.585 638.55 382.352C638.136 383.103 637.929 383.985 637.929 384.997C637.929 385.994 638.136 386.875 638.55 387.642C638.979 388.409 639.554 389.007 640.275 389.436C641.011 389.85 641.839 390.057 642.759 390.057ZM647.612 391V387.067L647.819 384.974L647.589 382.881V373.934H648.739V391H647.612ZM658.463 391.092C657.252 391.092 656.179 390.831 655.243 390.31C654.323 389.789 653.595 389.068 653.058 388.148C652.537 387.228 652.276 386.178 652.276 384.997C652.276 383.801 652.522 382.751 653.012 381.846C653.518 380.926 654.208 380.205 655.082 379.684C655.956 379.163 656.938 378.902 658.026 378.902C659.115 378.902 660.089 379.155 660.947 379.661C661.821 380.167 662.504 380.88 662.994 381.8C663.5 382.705 663.753 383.755 663.753 384.951C663.753 384.997 663.746 385.051 663.73 385.112C663.73 385.158 663.73 385.212 663.73 385.273H653.127V384.376H663.109L662.649 384.813C662.665 383.878 662.465 383.042 662.051 382.306C661.653 381.555 661.108 380.972 660.418 380.558C659.728 380.129 658.931 379.914 658.026 379.914C657.137 379.914 656.34 380.129 655.634 380.558C654.944 380.972 654.4 381.555 654.001 382.306C653.603 383.042 653.403 383.885 653.403 384.836V385.043C653.403 386.024 653.618 386.898 654.047 387.665C654.492 388.416 655.098 389.007 655.864 389.436C656.631 389.85 657.505 390.057 658.486 390.057C659.253 390.057 659.966 389.919 660.625 389.643C661.3 389.367 661.867 388.945 662.327 388.378L662.994 389.137C662.473 389.781 661.814 390.272 661.016 390.609C660.234 390.931 659.383 391.092 658.463 391.092ZM670.895 391L678.301 374.9H679.474L686.88 391H685.615L678.623 375.636H679.129L672.16 391H670.895ZM673.609 386.469L674 385.48H683.637L684.028 386.469H673.609ZM689.435 391V373.934H690.585V391H689.435ZM700.308 391.092C699.097 391.092 698.023 390.831 697.088 390.31C696.168 389.789 695.44 389.068 694.903 388.148C694.382 387.228 694.121 386.178 694.121 384.997C694.121 383.801 694.366 382.751 694.857 381.846C695.363 380.926 696.053 380.205 696.927 379.684C697.801 379.163 698.782 378.902 699.871 378.902C700.96 378.902 701.933 379.155 702.792 379.661C703.666 380.167 704.348 380.88 704.839 381.8C705.345 382.705 705.598 383.755 705.598 384.951C705.598 384.997 705.59 385.051 705.575 385.112C705.575 385.158 705.575 385.212 705.575 385.273H694.972V384.376H704.954L704.494 384.813C704.509 383.878 704.31 383.042 703.896 382.306C703.497 381.555 702.953 380.972 702.263 380.558C701.573 380.129 700.776 379.914 699.871 379.914C698.982 379.914 698.184 380.129 697.479 380.558C696.789 380.972 696.245 381.555 695.846 382.306C695.447 383.042 695.248 383.885 695.248 384.836V385.043C695.248 386.024 695.463 386.898 695.892 387.665C696.337 388.416 696.942 389.007 697.709 389.436C698.476 389.85 699.35 390.057 700.331 390.057C701.098 390.057 701.811 389.919 702.47 389.643C703.145 389.367 703.712 388.945 704.172 388.378L704.839 389.137C704.318 389.781 703.658 390.272 702.861 390.609C702.079 390.931 701.228 391.092 700.308 391.092ZM715.021 378.902C716.002 378.902 716.853 379.094 717.574 379.477C718.31 379.845 718.877 380.412 719.276 381.179C719.69 381.93 719.897 382.866 719.897 383.985V391H718.747V384.077C718.747 382.728 718.402 381.7 717.712 380.995C717.037 380.29 716.086 379.937 714.86 379.937C713.924 379.937 713.112 380.129 712.422 380.512C711.732 380.895 711.203 381.432 710.835 382.122C710.482 382.812 710.306 383.64 710.306 384.606V391H709.156V378.994H710.26V382.329L710.099 381.961C710.467 381.01 711.072 380.267 711.916 379.73C712.759 379.178 713.794 378.902 715.021 378.902ZM729.392 391.092C728.227 391.092 727.184 390.831 726.264 390.31C725.36 389.789 724.639 389.068 724.102 388.148C723.581 387.228 723.32 386.178 723.32 384.997C723.32 383.801 723.581 382.743 724.102 381.823C724.639 380.903 725.36 380.19 726.264 379.684C727.184 379.163 728.227 378.902 729.392 378.902C730.358 378.902 731.232 379.086 732.014 379.454C732.812 379.822 733.456 380.374 733.946 381.11L733.095 381.731C732.666 381.118 732.129 380.665 731.485 380.374C730.841 380.083 730.144 379.937 729.392 379.937C728.457 379.937 727.614 380.152 726.862 380.581C726.126 380.995 725.544 381.585 725.114 382.352C724.7 383.103 724.493 383.985 724.493 384.997C724.493 386.009 724.7 386.898 725.114 387.665C725.544 388.416 726.126 389.007 726.862 389.436C727.614 389.85 728.457 390.057 729.392 390.057C730.144 390.057 730.841 389.911 731.485 389.62C732.129 389.329 732.666 388.876 733.095 388.263L733.946 388.884C733.456 389.62 732.812 390.172 732.014 390.54C731.232 390.908 730.358 391.092 729.392 391.092ZM744.956 391V388.263L744.91 387.849V383.341C744.91 382.222 744.604 381.371 743.99 380.788C743.392 380.205 742.511 379.914 741.345 379.914C740.517 379.914 739.743 380.06 739.022 380.351C738.317 380.627 737.711 380.987 737.205 381.432L736.63 380.604C737.228 380.067 737.949 379.653 738.792 379.362C739.636 379.055 740.517 378.902 741.437 378.902C742.925 378.902 744.067 379.278 744.864 380.029C745.662 380.78 746.06 381.9 746.06 383.387V391H744.956ZM740.632 391.092C739.743 391.092 738.969 390.954 738.309 390.678C737.665 390.387 737.167 389.98 736.814 389.459C736.477 388.938 736.308 388.34 736.308 387.665C736.308 387.052 736.446 386.5 736.722 386.009C737.014 385.503 737.489 385.097 738.148 384.79C738.808 384.468 739.689 384.307 740.793 384.307H745.209V385.204H740.816C739.574 385.204 738.7 385.434 738.194 385.894C737.704 386.354 737.458 386.929 737.458 387.619C737.458 388.386 737.75 388.999 738.332 389.459C738.915 389.919 739.735 390.149 740.793 390.149C741.805 390.149 742.656 389.919 743.346 389.459C744.052 388.999 744.573 388.332 744.91 387.458L745.232 388.24C744.91 389.114 744.358 389.812 743.576 390.333C742.81 390.839 741.828 391.092 740.632 391.092ZM750.798 391V378.994H751.902V382.283L751.787 381.915C752.125 380.949 752.692 380.205 753.489 379.684C754.287 379.163 755.283 378.902 756.479 378.902V380.029C756.433 380.029 756.387 380.029 756.341 380.029C756.295 380.014 756.249 380.006 756.203 380.006C754.869 380.006 753.827 380.428 753.075 381.271C752.324 382.099 751.948 383.257 751.948 384.744V391H750.798ZM758.522 394.289L759.419 390.402L759.534 391.069C759.242 391.069 758.997 390.977 758.798 390.793C758.614 390.609 758.522 390.379 758.522 390.103C758.522 389.827 758.614 389.597 758.798 389.413C758.997 389.229 759.227 389.137 759.488 389.137C759.779 389.137 760.009 389.237 760.178 389.436C760.362 389.62 760.454 389.842 760.454 390.103C760.454 390.21 760.446 390.318 760.431 390.425C760.415 390.532 760.392 390.64 760.362 390.747C760.331 390.854 760.293 390.992 760.247 391.161L759.35 394.289H758.522ZM771.839 391V375.406L772.368 375.958H767.906V374.9H773.012V391H771.839ZM779.948 391V375.406L780.477 375.958H776.015V374.9H781.121V391H779.948ZM788.056 391V375.406L788.585 375.958H784.123V374.9H789.229V391H788.056ZM793.358 394.289L794.255 390.402L794.37 391.069C794.079 391.069 793.834 390.977 793.634 390.793C793.45 390.609 793.358 390.379 793.358 390.103C793.358 389.827 793.45 389.597 793.634 389.413C793.834 389.229 794.064 389.137 794.324 389.137C794.616 389.137 794.846 389.237 795.014 389.436C795.198 389.62 795.29 389.842 795.29 390.103C795.29 390.21 795.283 390.318 795.267 390.425C795.252 390.532 795.229 390.64 795.198 390.747C795.168 390.854 795.129 390.992 795.083 391.161L794.186 394.289H793.358ZM812.15 391.115C810.954 391.115 809.842 390.916 808.815 390.517C807.803 390.103 806.921 389.528 806.17 388.792C805.419 388.056 804.836 387.197 804.422 386.216C804.008 385.219 803.801 384.131 803.801 382.95C803.801 381.769 804.008 380.688 804.422 379.707C804.836 378.71 805.419 377.844 806.17 377.108C806.937 376.372 807.826 375.805 808.838 375.406C809.85 374.992 810.954 374.785 812.15 374.785C813.285 374.785 814.343 374.969 815.324 375.337C816.321 375.705 817.172 376.265 817.877 377.016L817.141 377.775C816.451 377.1 815.684 376.617 814.841 376.326C814.013 376.019 813.131 375.866 812.196 375.866C811.169 375.866 810.21 376.042 809.321 376.395C808.447 376.748 807.68 377.246 807.021 377.89C806.377 378.534 805.871 379.285 805.503 380.144C805.15 381.003 804.974 381.938 804.974 382.95C804.974 383.962 805.15 384.897 805.503 385.756C805.871 386.615 806.377 387.366 807.021 388.01C807.68 388.654 808.447 389.152 809.321 389.505C810.21 389.858 811.169 390.034 812.196 390.034C813.131 390.034 814.013 389.888 814.841 389.597C815.684 389.29 816.451 388.792 817.141 388.102L817.877 388.861C817.172 389.612 816.321 390.18 815.324 390.563C814.343 390.931 813.285 391.115 812.15 391.115ZM825.752 391.092C824.541 391.092 823.468 390.831 822.532 390.31C821.612 389.789 820.884 389.068 820.347 388.148C819.826 387.228 819.565 386.178 819.565 384.997C819.565 383.801 819.811 382.751 820.301 381.846C820.807 380.926 821.497 380.205 822.371 379.684C823.245 379.163 824.227 378.902 825.315 378.902C826.404 378.902 827.378 379.155 828.236 379.661C829.11 380.167 829.793 380.88 830.283 381.8C830.789 382.705 831.042 383.755 831.042 384.951C831.042 384.997 831.035 385.051 831.019 385.112C831.019 385.158 831.019 385.212 831.019 385.273H820.416V384.376H830.398L829.938 384.813C829.954 383.878 829.754 383.042 829.34 382.306C828.942 381.555 828.397 380.972 827.707 380.558C827.017 380.129 826.22 379.914 825.315 379.914C824.426 379.914 823.629 380.129 822.923 380.558C822.233 380.972 821.689 381.555 821.29 382.306C820.892 383.042 820.692 383.885 820.692 384.836V385.043C820.692 386.024 820.907 386.898 821.336 387.665C821.781 388.416 822.387 389.007 823.153 389.436C823.92 389.85 824.794 390.057 825.775 390.057C826.542 390.057 827.255 389.919 827.914 389.643C828.589 389.367 829.156 388.945 829.616 388.378L830.283 389.137C829.762 389.781 829.103 390.272 828.305 390.609C827.523 390.931 826.672 391.092 825.752 391.092ZM840.465 378.902C841.446 378.902 842.297 379.094 843.018 379.477C843.754 379.845 844.321 380.412 844.72 381.179C845.134 381.93 845.341 382.866 845.341 383.985V391H844.191V384.077C844.191 382.728 843.846 381.7 843.156 380.995C842.481 380.29 841.531 379.937 840.304 379.937C839.369 379.937 838.556 380.129 837.866 380.512C837.176 380.895 836.647 381.432 836.279 382.122C835.926 382.812 835.75 383.64 835.75 384.606V391H834.6V378.994H835.704V382.329L835.543 381.961C835.911 381.01 836.517 380.267 837.36 379.73C838.203 379.178 839.238 378.902 840.465 378.902ZM853.572 391.092C852.514 391.092 851.701 390.801 851.134 390.218C850.582 389.635 850.306 388.838 850.306 387.826V376.372H851.456V387.711C851.456 388.478 851.647 389.068 852.031 389.482C852.414 389.896 852.966 390.103 853.687 390.103C854.438 390.103 855.059 389.881 855.55 389.436L856.033 390.241C855.726 390.532 855.35 390.747 854.906 390.885C854.476 391.023 854.032 391.092 853.572 391.092ZM848.098 379.983V378.994H855.274V379.983H848.098ZM859.24 391V378.994H860.344V382.283L860.229 381.915C860.566 380.949 861.133 380.205 861.931 379.684C862.728 379.163 863.725 378.902 864.921 378.902V380.029C864.875 380.029 864.829 380.029 864.783 380.029C864.737 380.014 864.691 380.006 864.645 380.006C863.311 380.006 862.268 380.428 861.517 381.271C860.765 382.099 860.39 383.257 860.39 384.744V391H859.24ZM872.669 391.092C871.519 391.092 870.492 390.831 869.587 390.31C868.698 389.789 867.985 389.068 867.448 388.148C866.927 387.228 866.666 386.178 866.666 384.997C866.666 383.801 866.927 382.751 867.448 381.846C867.985 380.926 868.698 380.205 869.587 379.684C870.492 379.163 871.519 378.902 872.669 378.902C873.819 378.902 874.846 379.163 875.751 379.684C876.656 380.205 877.369 380.926 877.89 381.846C878.411 382.751 878.672 383.801 878.672 384.997C878.672 386.178 878.411 387.228 877.89 388.148C877.369 389.068 876.656 389.789 875.751 390.31C874.846 390.831 873.819 391.092 872.669 391.092ZM872.669 390.057C873.589 390.057 874.417 389.85 875.153 389.436C875.889 389.007 876.464 388.409 876.878 387.642C877.292 386.875 877.499 385.994 877.499 384.997C877.499 383.985 877.292 383.103 876.878 382.352C876.464 381.585 875.889 380.995 875.153 380.581C874.417 380.152 873.589 379.937 872.669 379.937C871.749 379.937 870.921 380.152 870.185 380.581C869.464 380.995 868.889 381.585 868.46 382.352C868.046 383.103 867.839 383.985 867.839 384.997C867.839 385.994 868.046 386.875 868.46 387.642C868.889 388.409 869.464 389.007 870.185 389.436C870.921 389.85 871.749 390.057 872.669 390.057ZM515.52 436.115C514.324 436.115 513.212 435.916 512.185 435.517C511.173 435.103 510.291 434.528 509.54 433.792C508.788 433.056 508.206 432.197 507.792 431.216C507.378 430.219 507.171 429.131 507.171 427.95C507.171 426.769 507.378 425.688 507.792 424.707C508.206 423.71 508.788 422.844 509.54 422.108C510.306 421.372 511.196 420.805 512.208 420.406C513.22 419.992 514.324 419.785 515.52 419.785C516.654 419.785 517.712 419.969 518.694 420.337C519.69 420.705 520.541 421.265 521.247 422.016L520.511 422.775C519.821 422.1 519.054 421.617 518.211 421.326C517.383 421.019 516.501 420.866 515.566 420.866C514.538 420.866 513.58 421.042 512.691 421.395C511.817 421.748 511.05 422.246 510.391 422.89C509.747 423.534 509.241 424.285 508.873 425.144C508.52 426.003 508.344 426.938 508.344 427.95C508.344 428.962 508.52 429.897 508.873 430.756C509.241 431.615 509.747 432.366 510.391 433.01C511.05 433.654 511.817 434.152 512.691 434.505C513.58 434.858 514.538 435.034 515.566 435.034C516.501 435.034 517.383 434.888 518.211 434.597C519.054 434.29 519.821 433.792 520.511 433.102L521.247 433.861C520.541 434.612 519.69 435.18 518.694 435.563C517.712 435.931 516.654 436.115 515.52 436.115ZM526.211 427.306H534.928V428.341H526.211V427.306ZM526.349 434.942H536.285V436H525.176V419.9H535.94V420.958H526.349V434.942ZM540.561 436V419.9H546.334C547.684 419.9 548.841 420.115 549.807 420.544C550.773 420.973 551.517 421.594 552.038 422.407C552.56 423.204 552.82 424.178 552.82 425.328C552.82 426.447 552.56 427.413 552.038 428.226C551.517 429.039 550.773 429.66 549.807 430.089C548.841 430.518 547.684 430.733 546.334 430.733H541.205L541.734 430.181V436H540.561ZM541.734 430.25L541.205 429.675H546.334C548.067 429.675 549.378 429.299 550.267 428.548C551.172 427.781 551.624 426.708 551.624 425.328C551.624 423.933 551.172 422.859 550.267 422.108C549.378 421.341 548.067 420.958 546.334 420.958H541.205L541.734 420.383V430.25ZM556.497 425.857C556.236 425.857 556.006 425.765 555.807 425.581C555.623 425.382 555.531 425.144 555.531 424.868C555.531 424.592 555.623 424.362 555.807 424.178C556.006 423.994 556.236 423.902 556.497 423.902C556.757 423.902 556.98 423.994 557.164 424.178C557.363 424.362 557.463 424.592 557.463 424.868C557.463 425.144 557.363 425.382 557.164 425.581C556.98 425.765 556.757 425.857 556.497 425.857ZM556.497 436.092C556.236 436.092 556.006 436 555.807 435.816C555.623 435.617 555.531 435.379 555.531 435.103C555.531 434.827 555.623 434.597 555.807 434.413C556.006 434.229 556.236 434.137 556.497 434.137C556.757 434.137 556.98 434.229 557.164 434.413C557.363 434.597 557.463 434.827 557.463 435.103C557.463 435.379 557.363 435.617 557.164 435.816C556.98 436 556.757 436.092 556.497 436.092ZM568.848 436V420.406L569.377 420.958H564.915V419.9H570.021V436H568.848ZM573.76 436V435.172L580.568 428.41C581.212 427.766 581.695 427.206 582.017 426.731C582.339 426.24 582.554 425.788 582.661 425.374C582.784 424.96 582.845 424.554 582.845 424.155C582.845 423.143 582.5 422.346 581.81 421.763C581.12 421.165 580.108 420.866 578.774 420.866C577.762 420.866 576.873 421.019 576.106 421.326C575.355 421.633 574.703 422.1 574.151 422.729L573.323 421.993C573.936 421.288 574.711 420.743 575.646 420.36C576.597 419.977 577.67 419.785 578.866 419.785C579.924 419.785 580.836 419.961 581.603 420.314C582.385 420.651 582.983 421.142 583.397 421.786C583.826 422.415 584.041 423.166 584.041 424.04C584.041 424.561 583.964 425.075 583.811 425.581C583.673 426.072 583.412 426.593 583.029 427.145C582.661 427.697 582.124 428.326 581.419 429.031L575.025 435.402L574.634 434.942H584.823V436H573.76ZM586.72 436V435.172L593.528 428.41C594.172 427.766 594.655 427.206 594.977 426.731C595.299 426.24 595.514 425.788 595.621 425.374C595.744 424.96 595.805 424.554 595.805 424.155C595.805 423.143 595.46 422.346 594.77 421.763C594.08 421.165 593.068 420.866 591.734 420.866C590.722 420.866 589.833 421.019 589.066 421.326C588.315 421.633 587.663 422.1 587.111 422.729L586.283 421.993C586.896 421.288 587.671 420.743 588.606 420.36C589.557 419.977 590.63 419.785 591.826 419.785C592.884 419.785 593.796 419.961 594.563 420.314C595.345 420.651 595.943 421.142 596.357 421.786C596.786 422.415 597.001 423.166 597.001 424.04C597.001 424.561 596.924 425.075 596.771 425.581C596.633 426.072 596.372 426.593 595.989 427.145C595.621 427.697 595.084 428.326 594.379 429.031L587.985 435.402L587.594 434.942H597.783V436H586.72ZM606.236 436.115C605.01 436.115 603.921 435.785 602.97 435.126C602.02 434.467 601.276 433.531 600.739 432.32C600.203 431.093 599.934 429.637 599.934 427.95C599.934 426.263 600.203 424.814 600.739 423.603C601.276 422.376 602.02 421.433 602.97 420.774C603.921 420.115 605.01 419.785 606.236 419.785C607.478 419.785 608.567 420.115 609.502 420.774C610.453 421.433 611.197 422.376 611.733 423.603C612.27 424.814 612.538 426.263 612.538 427.95C612.538 429.637 612.27 431.093 611.733 432.32C611.197 433.531 610.453 434.467 609.502 435.126C608.567 435.785 607.478 436.115 606.236 436.115ZM606.236 435.034C607.264 435.034 608.161 434.758 608.927 434.206C609.694 433.639 610.292 432.826 610.721 431.768C611.151 430.71 611.365 429.437 611.365 427.95C611.365 426.447 611.151 425.175 610.721 424.132C610.292 423.074 609.694 422.269 608.927 421.717C608.161 421.15 607.264 420.866 606.236 420.866C605.224 420.866 604.327 421.15 603.545 421.717C602.779 422.269 602.181 423.074 601.751 424.132C601.322 425.175 601.107 426.447 601.107 427.95C601.107 429.437 601.322 430.71 601.751 431.768C602.181 432.826 602.779 433.639 603.545 434.206C604.327 434.758 605.224 435.034 606.236 435.034ZM619.926 419.785C621.337 419.785 622.517 420.107 623.468 420.751C624.434 421.395 625.162 422.323 625.653 423.534C626.144 424.73 626.389 426.171 626.389 427.858C626.389 429.667 626.09 431.185 625.492 432.412C624.894 433.639 624.058 434.566 622.985 435.195C621.912 435.808 620.662 436.115 619.236 436.115C618.546 436.115 617.887 436.054 617.258 435.931C616.645 435.808 616.085 435.594 615.579 435.287L616.062 434.344C616.476 434.605 616.959 434.796 617.511 434.919C618.063 435.026 618.638 435.08 619.236 435.08C621.045 435.08 622.494 434.497 623.583 433.332C624.672 432.151 625.216 430.388 625.216 428.042C625.216 427.674 625.193 427.222 625.147 426.685C625.101 426.148 625.001 425.619 624.848 425.098L625.262 425.213C625.155 426.102 624.856 426.861 624.365 427.49C623.874 428.103 623.246 428.579 622.479 428.916C621.728 429.253 620.884 429.422 619.949 429.422C618.876 429.422 617.933 429.23 617.12 428.847C616.323 428.448 615.694 427.889 615.234 427.168C614.789 426.447 614.567 425.604 614.567 424.638C614.567 423.657 614.797 422.806 615.257 422.085C615.732 421.349 616.369 420.782 617.166 420.383C617.979 419.984 618.899 419.785 619.926 419.785ZM619.972 420.797C619.129 420.797 618.393 420.958 617.764 421.28C617.135 421.587 616.637 422.024 616.269 422.591C615.916 423.158 615.74 423.833 615.74 424.615C615.74 425.765 616.131 426.685 616.913 427.375C617.695 428.065 618.761 428.41 620.11 428.41C620.984 428.41 621.758 428.241 622.433 427.904C623.108 427.567 623.629 427.107 623.997 426.524C624.38 425.941 624.572 425.29 624.572 424.569C624.572 423.94 624.396 423.342 624.043 422.775C623.69 422.192 623.177 421.717 622.502 421.349C621.827 420.981 620.984 420.797 619.972 420.797ZM629.272 430.342V429.307H635.183V430.342H629.272ZM644.375 436.115C643.148 436.115 642.06 435.785 641.109 435.126C640.158 434.467 639.415 433.531 638.878 432.32C638.341 431.093 638.073 429.637 638.073 427.95C638.073 426.263 638.341 424.814 638.878 423.603C639.415 422.376 640.158 421.433 641.109 420.774C642.06 420.115 643.148 419.785 644.375 419.785C645.617 419.785 646.706 420.115 647.641 420.774C648.592 421.433 649.335 422.376 649.872 423.603C650.409 424.814 650.677 426.263 650.677 427.95C650.677 429.637 650.409 431.093 649.872 432.32C649.335 433.531 648.592 434.467 647.641 435.126C646.706 435.785 645.617 436.115 644.375 436.115ZM644.375 435.034C645.402 435.034 646.299 434.758 647.066 434.206C647.833 433.639 648.431 432.826 648.86 431.768C649.289 430.71 649.504 429.437 649.504 427.95C649.504 426.447 649.289 425.175 648.86 424.132C648.431 423.074 647.833 422.269 647.066 421.717C646.299 421.15 645.402 420.866 644.375 420.866C643.363 420.866 642.466 421.15 641.684 421.717C640.917 422.269 640.319 423.074 639.89 424.132C639.461 425.175 639.246 426.447 639.246 427.95C639.246 429.437 639.461 430.71 639.89 431.768C640.319 432.826 640.917 433.639 641.684 434.206C642.466 434.758 643.363 435.034 644.375 435.034ZM659.514 436.115C658.287 436.115 657.198 435.785 656.248 435.126C655.297 434.467 654.553 433.531 654.017 432.32C653.48 431.093 653.212 429.637 653.212 427.95C653.212 426.263 653.48 424.814 654.017 423.603C654.553 422.376 655.297 421.433 656.248 420.774C657.198 420.115 658.287 419.785 659.514 419.785C660.756 419.785 661.844 420.115 662.78 420.774C663.73 421.433 664.474 422.376 665.011 423.603C665.547 424.814 665.816 426.263 665.816 427.95C665.816 429.637 665.547 431.093 665.011 432.32C664.474 433.531 663.73 434.467 662.78 435.126C661.844 435.785 660.756 436.115 659.514 436.115ZM659.514 435.034C660.541 435.034 661.438 434.758 662.205 434.206C662.971 433.639 663.569 432.826 663.999 431.768C664.428 430.71 664.643 429.437 664.643 427.95C664.643 426.447 664.428 425.175 663.999 424.132C663.569 423.074 662.971 422.269 662.205 421.717C661.438 421.15 660.541 420.866 659.514 420.866C658.502 420.866 657.605 421.15 656.823 421.717C656.056 422.269 655.458 423.074 655.029 424.132C654.599 425.175 654.385 426.447 654.385 427.95C654.385 429.437 654.599 430.71 655.029 431.768C655.458 432.826 656.056 433.639 656.823 434.206C657.605 434.758 658.502 435.034 659.514 435.034ZM674.652 436.115C673.426 436.115 672.337 435.785 671.386 435.126C670.436 434.467 669.692 433.531 669.155 432.32C668.619 431.093 668.35 429.637 668.35 427.95C668.35 426.263 668.619 424.814 669.155 423.603C669.692 422.376 670.436 421.433 671.386 420.774C672.337 420.115 673.426 419.785 674.652 419.785C675.894 419.785 676.983 420.115 677.918 420.774C678.869 421.433 679.613 422.376 680.149 423.603C680.686 424.814 680.954 426.263 680.954 427.95C680.954 429.637 680.686 431.093 680.149 432.32C679.613 433.531 678.869 434.467 677.918 435.126C676.983 435.785 675.894 436.115 674.652 436.115ZM674.652 435.034C675.68 435.034 676.577 434.758 677.343 434.206C678.11 433.639 678.708 432.826 679.137 431.768C679.567 430.71 679.781 429.437 679.781 427.95C679.781 426.447 679.567 425.175 679.137 424.132C678.708 423.074 678.11 422.269 677.343 421.717C676.577 421.15 675.68 420.866 674.652 420.866C673.64 420.866 672.743 421.15 671.961 421.717C671.195 422.269 670.597 423.074 670.167 424.132C669.738 425.175 669.523 426.447 669.523 427.95C669.523 429.437 669.738 430.71 670.167 431.768C670.597 432.826 671.195 433.639 671.961 434.206C672.743 434.758 673.64 435.034 674.652 435.034ZM690.937 440.462V418.934H692.018V440.462H690.937ZM706.758 432.711V423.189H707.793V432.711H706.758ZM702.388 428.456V427.467H712.163V428.456H702.388ZM720.083 436.115C718.917 436.115 717.821 435.916 716.794 435.517C715.782 435.118 714.992 434.597 714.425 433.953L715.023 433.056C715.513 433.623 716.203 434.099 717.093 434.482C717.982 434.85 718.971 435.034 720.06 435.034C721.547 435.034 722.666 434.697 723.418 434.022C724.169 433.347 724.545 432.473 724.545 431.4C724.545 430.633 724.368 429.974 724.016 429.422C723.663 428.87 723.065 428.448 722.222 428.157C721.378 427.85 720.228 427.697 718.772 427.697H715.506L716.357 419.9H724.89V420.958H716.84L717.415 420.406L716.656 427.237L716.104 426.639H719.025C720.665 426.639 721.969 426.838 722.935 427.237C723.916 427.62 724.621 428.165 725.051 428.87C725.495 429.575 725.718 430.403 725.718 431.354C725.718 432.243 725.511 433.048 725.097 433.769C724.683 434.49 724.054 435.065 723.211 435.494C722.383 435.908 721.34 436.115 720.083 436.115ZM732.796 436.115C731.63 436.115 730.534 435.916 729.507 435.517C728.495 435.118 727.705 434.597 727.138 433.953L727.736 433.056C728.226 433.623 728.916 434.099 729.806 434.482C730.695 434.85 731.684 435.034 732.773 435.034C734.26 435.034 735.379 434.697 736.131 434.022C736.882 433.347 737.258 432.473 737.258 431.4C737.258 430.633 737.081 429.974 736.729 429.422C736.376 428.87 735.778 428.448 734.935 428.157C734.091 427.85 732.941 427.697 731.485 427.697H728.219L729.07 419.9H737.603V420.958H729.553L730.128 420.406L729.369 427.237L728.817 426.639H731.738C733.378 426.639 734.682 426.838 735.648 427.237C736.629 427.62 737.334 428.165 737.764 428.87C738.208 429.575 738.431 430.403 738.431 431.354C738.431 432.243 738.224 433.048 737.81 433.769C737.396 434.49 736.767 435.065 735.924 435.494C735.096 435.908 734.053 436.115 732.796 436.115ZM750.47 440.462C749.627 439.067 748.975 437.457 748.515 435.632C748.07 433.807 747.848 431.829 747.848 429.698C747.848 427.567 748.07 425.581 748.515 423.741C748.975 421.886 749.627 420.283 750.47 418.934H751.574C750.669 420.467 750.01 422.123 749.596 423.902C749.182 425.681 748.975 427.613 748.975 429.698C748.975 431.783 749.182 433.715 749.596 435.494C750.01 437.273 750.669 438.929 751.574 440.462H750.47ZM757.026 436V420.406L757.555 420.958H753.093V419.9H758.199V436H757.026ZM765.135 436V420.406L765.664 420.958H761.202V419.9H766.308V436H765.135ZM771.288 440.462H770.207C771.096 438.929 771.748 437.273 772.162 435.494C772.576 433.715 772.783 431.783 772.783 429.698C772.783 427.613 772.576 425.681 772.162 423.902C771.748 422.123 771.096 420.467 770.207 418.934H771.288C772.131 420.283 772.783 421.886 773.243 423.741C773.703 425.581 773.933 427.567 773.933 429.698C773.933 431.829 773.703 433.807 773.243 435.632C772.783 437.457 772.131 439.067 771.288 440.462ZM788.402 436.115C787.222 436.115 786.118 435.916 785.09 435.517C784.078 435.118 783.289 434.597 782.721 433.953L783.319 433.056C783.81 433.623 784.5 434.099 785.389 434.482C786.294 434.85 787.298 435.034 788.402 435.034C789.844 435.034 790.94 434.712 791.691 434.068C792.458 433.424 792.841 432.558 792.841 431.469C792.841 430.396 792.458 429.537 791.691 428.893C790.94 428.234 789.759 427.904 788.149 427.904H787.137V427.053L792.266 420.498L792.427 420.958H783.319V419.9H793.416V420.728L788.31 427.283L787.804 426.915H788.31C790.227 426.915 791.661 427.337 792.611 428.18C793.562 429.023 794.037 430.12 794.037 431.469C794.037 432.358 793.823 433.156 793.393 433.861C792.979 434.566 792.351 435.118 791.507 435.517C790.679 435.916 789.644 436.115 788.402 436.115ZM801.115 436.115C799.935 436.115 798.831 435.916 797.803 435.517C796.791 435.118 796.002 434.597 795.434 433.953L796.032 433.056C796.523 433.623 797.213 434.099 798.102 434.482C799.007 434.85 800.011 435.034 801.115 435.034C802.557 435.034 803.653 434.712 804.404 434.068C805.171 433.424 805.554 432.558 805.554 431.469C805.554 430.396 805.171 429.537 804.404 428.893C803.653 428.234 802.472 427.904 800.862 427.904H799.85V427.053L804.979 420.498L805.14 420.958H796.032V419.9H806.129V420.728L801.023 427.283L800.517 426.915H801.023C802.94 426.915 804.374 427.337 805.324 428.18C806.275 429.023 806.75 430.12 806.75 431.469C806.75 432.358 806.536 433.156 806.106 433.861C805.692 434.566 805.064 435.118 804.22 435.517C803.392 435.916 802.357 436.115 801.115 436.115ZM813.828 436.115C812.647 436.115 811.543 435.916 810.516 435.517C809.504 435.118 808.714 434.597 808.147 433.953L808.745 433.056C809.236 433.623 809.926 434.099 810.815 434.482C811.72 434.85 812.724 435.034 813.828 435.034C815.269 435.034 816.366 434.712 817.117 434.068C817.884 433.424 818.267 432.558 818.267 431.469C818.267 430.396 817.884 429.537 817.117 428.893C816.366 428.234 815.185 427.904 813.575 427.904H812.563V427.053L817.692 420.498L817.853 420.958H808.745V419.9H818.842V420.728L813.736 427.283L813.23 426.915H813.736C815.653 426.915 817.086 427.337 818.037 428.18C818.988 429.023 819.463 430.12 819.463 431.469C819.463 432.358 819.248 433.156 818.819 433.861C818.405 434.566 817.776 435.118 816.933 435.517C816.105 435.916 815.07 436.115 813.828 436.115ZM826.541 436.115C825.36 436.115 824.256 435.916 823.229 435.517C822.217 435.118 821.427 434.597 820.86 433.953L821.458 433.056C821.949 433.623 822.639 434.099 823.528 434.482C824.433 434.85 825.437 435.034 826.541 435.034C827.982 435.034 829.079 434.712 829.83 434.068C830.597 433.424 830.98 432.558 830.98 431.469C830.98 430.396 830.597 429.537 829.83 428.893C829.079 428.234 827.898 427.904 826.288 427.904H825.276V427.053L830.405 420.498L830.566 420.958H821.458V419.9H831.555V420.728L826.449 427.283L825.943 426.915H826.449C828.366 426.915 829.799 427.337 830.75 428.18C831.701 429.023 832.176 430.12 832.176 431.469C832.176 432.358 831.961 433.156 831.532 433.861C831.118 434.566 830.489 435.118 829.646 435.517C828.818 435.916 827.783 436.115 826.541 436.115ZM834.812 430.342V429.307H840.723V430.342H834.812ZM849.391 436.115C848.118 436.115 847.03 435.931 846.125 435.563C845.22 435.195 844.523 434.674 844.032 433.999C843.557 433.324 843.319 432.519 843.319 431.584C843.319 430.679 843.557 429.905 844.032 429.261C844.507 428.617 845.197 428.126 846.102 427.789C847.007 427.436 848.103 427.26 849.391 427.26C850.679 427.26 851.775 427.436 852.68 427.789C853.6 428.126 854.298 428.617 854.773 429.261C855.264 429.905 855.509 430.679 855.509 431.584C855.509 432.519 855.264 433.324 854.773 433.999C854.282 434.674 853.577 435.195 852.657 435.563C851.752 435.931 850.664 436.115 849.391 436.115ZM849.391 435.103C850.94 435.103 852.151 434.789 853.025 434.16C853.899 433.531 854.336 432.673 854.336 431.584C854.336 430.511 853.899 429.66 853.025 429.031C852.151 428.402 850.94 428.088 849.391 428.088C847.842 428.088 846.639 428.402 845.78 429.031C844.921 429.66 844.492 430.511 844.492 431.584C844.492 432.673 844.921 433.531 845.78 434.16C846.639 434.789 847.842 435.103 849.391 435.103ZM849.391 427.927C848.226 427.927 847.229 427.774 846.401 427.467C845.588 427.145 844.967 426.685 844.538 426.087C844.109 425.489 843.894 424.776 843.894 423.948C843.894 423.089 844.116 422.353 844.561 421.74C845.021 421.111 845.665 420.628 846.493 420.291C847.321 419.954 848.287 419.785 849.391 419.785C850.51 419.785 851.484 419.954 852.312 420.291C853.14 420.628 853.784 421.111 854.244 421.74C854.704 422.353 854.934 423.089 854.934 423.948C854.934 424.776 854.712 425.489 854.267 426.087C853.838 426.685 853.209 427.145 852.381 427.467C851.553 427.774 850.556 427.927 849.391 427.927ZM849.391 427.122C850.771 427.122 851.844 426.838 852.611 426.271C853.378 425.704 853.761 424.945 853.761 423.994C853.761 422.997 853.362 422.215 852.565 421.648C851.783 421.081 850.725 420.797 849.391 420.797C848.072 420.797 847.022 421.081 846.24 421.648C845.458 422.215 845.067 422.99 845.067 423.971C845.067 424.937 845.443 425.704 846.194 426.271C846.961 426.838 848.026 427.122 849.391 427.122ZM864.245 436.115C863.019 436.115 861.93 435.785 860.979 435.126C860.029 434.467 859.285 433.531 858.748 432.32C858.212 431.093 857.943 429.637 857.943 427.95C857.943 426.263 858.212 424.814 858.748 423.603C859.285 422.376 860.029 421.433 860.979 420.774C861.93 420.115 863.019 419.785 864.245 419.785C865.487 419.785 866.576 420.115 867.511 420.774C868.462 421.433 869.206 422.376 869.742 423.603C870.279 424.814 870.547 426.263 870.547 427.95C870.547 429.637 870.279 431.093 869.742 432.32C869.206 433.531 868.462 434.467 867.511 435.126C866.576 435.785 865.487 436.115 864.245 436.115ZM864.245 435.034C865.273 435.034 866.17 434.758 866.936 434.206C867.703 433.639 868.301 432.826 868.73 431.768C869.16 430.71 869.374 429.437 869.374 427.95C869.374 426.447 869.16 425.175 868.73 424.132C868.301 423.074 867.703 422.269 866.936 421.717C866.17 421.15 865.273 420.866 864.245 420.866C863.233 420.866 862.336 421.15 861.554 421.717C860.788 422.269 860.19 423.074 859.76 424.132C859.331 425.175 859.116 426.447 859.116 427.95C859.116 429.437 859.331 430.71 859.76 431.768C860.19 432.826 860.788 433.639 861.554 434.206C862.336 434.758 863.233 435.034 864.245 435.034ZM879.384 436.115C878.157 436.115 877.069 435.785 876.118 435.126C875.167 434.467 874.424 433.531 873.887 432.32C873.35 431.093 873.082 429.637 873.082 427.95C873.082 426.263 873.35 424.814 873.887 423.603C874.424 422.376 875.167 421.433 876.118 420.774C877.069 420.115 878.157 419.785 879.384 419.785C880.626 419.785 881.715 420.115 882.65 420.774C883.601 421.433 884.344 422.376 884.881 423.603C885.418 424.814 885.686 426.263 885.686 427.95C885.686 429.637 885.418 431.093 884.881 432.32C884.344 433.531 883.601 434.467 882.65 435.126C881.715 435.785 880.626 436.115 879.384 436.115ZM879.384 435.034C880.411 435.034 881.308 434.758 882.075 434.206C882.842 433.639 883.44 432.826 883.869 431.768C884.298 430.71 884.513 429.437 884.513 427.95C884.513 426.447 884.298 425.175 883.869 424.132C883.44 423.074 882.842 422.269 882.075 421.717C881.308 421.15 880.411 420.866 879.384 420.866C878.372 420.866 877.475 421.15 876.693 421.717C875.926 422.269 875.328 423.074 874.899 424.132C874.47 425.175 874.255 426.447 874.255 427.95C874.255 429.437 874.47 430.71 874.899 431.768C875.328 432.826 875.926 433.639 876.693 434.206C877.475 434.758 878.372 435.034 879.384 435.034ZM894.523 436.115C893.296 436.115 892.207 435.785 891.257 435.126C890.306 434.467 889.562 433.531 889.026 432.32C888.489 431.093 888.221 429.637 888.221 427.95C888.221 426.263 888.489 424.814 889.026 423.603C889.562 422.376 890.306 421.433 891.257 420.774C892.207 420.115 893.296 419.785 894.523 419.785C895.765 419.785 896.853 420.115 897.789 420.774C898.739 421.433 899.483 422.376 900.02 423.603C900.556 424.814 900.825 426.263 900.825 427.95C900.825 429.637 900.556 431.093 900.02 432.32C899.483 433.531 898.739 434.467 897.789 435.126C896.853 435.785 895.765 436.115 894.523 436.115ZM894.523 435.034C895.55 435.034 896.447 434.758 897.214 434.206C897.98 433.639 898.578 432.826 899.008 431.768C899.437 430.71 899.652 429.437 899.652 427.95C899.652 426.447 899.437 425.175 899.008 424.132C898.578 423.074 897.98 422.269 897.214 421.717C896.447 421.15 895.55 420.866 894.523 420.866C893.511 420.866 892.614 421.15 891.832 421.717C891.065 422.269 890.467 423.074 890.038 424.132C889.608 425.175 889.394 426.447 889.394 427.95C889.394 429.437 889.608 430.71 890.038 431.768C890.467 432.826 891.065 433.639 891.832 434.206C892.614 434.758 893.511 435.034 894.523 435.034Z" fill="black"/>
<path d="M566.195 298L578.753 270.7H580.742L593.3 298H591.155L579.299 271.948H580.157L568.34 298H566.195ZM570.797 290.317L571.46 288.64H587.801L588.464 290.317H570.797ZM603.37 298.156C601.576 298.156 600.198 297.662 599.236 296.674C598.3 295.686 597.832 294.334 597.832 292.618V273.196H599.782V292.423C599.782 293.723 600.107 294.724 600.757 295.426C601.407 296.128 602.343 296.479 603.565 296.479C604.839 296.479 605.892 296.102 606.724 295.348L607.543 296.713C607.023 297.207 606.386 297.571 605.632 297.805C604.904 298.039 604.15 298.156 603.37 298.156ZM594.088 279.319V277.642H606.256V279.319H594.088ZM620.525 298.156C618.471 298.156 616.651 297.714 615.065 296.83C613.505 295.946 612.27 294.724 611.36 293.164C610.476 291.604 610.034 289.823 610.034 287.821C610.034 285.793 610.45 284.012 611.282 282.478C612.14 280.918 613.31 279.696 614.792 278.812C616.274 277.928 617.938 277.486 619.784 277.486C621.63 277.486 623.281 277.915 624.737 278.773C626.219 279.631 627.376 280.84 628.208 282.4C629.066 283.934 629.495 285.715 629.495 287.743C629.495 287.821 629.482 287.912 629.456 288.016C629.456 288.094 629.456 288.185 629.456 288.289H611.477V286.768H628.403L627.623 287.509C627.649 285.923 627.311 284.506 626.609 283.258C625.933 281.984 625.01 280.996 623.84 280.294C622.67 279.566 621.318 279.202 619.784 279.202C618.276 279.202 616.924 279.566 615.728 280.294C614.558 280.996 613.635 281.984 612.959 283.258C612.283 284.506 611.945 285.936 611.945 287.548V287.899C611.945 289.563 612.309 291.045 613.037 292.345C613.791 293.619 614.818 294.62 616.118 295.348C617.418 296.05 618.9 296.401 620.564 296.401C621.864 296.401 623.073 296.167 624.191 295.699C625.335 295.231 626.297 294.516 627.077 293.554L628.208 294.841C627.324 295.933 626.206 296.765 624.854 297.337C623.528 297.883 622.085 298.156 620.525 298.156ZM645.473 277.486C647.137 277.486 648.58 277.811 649.802 278.461C651.05 279.085 652.012 280.047 652.688 281.347C653.39 282.621 653.741 284.207 653.741 286.105V298H651.791V286.261C651.791 283.973 651.206 282.231 650.036 281.035C648.892 279.839 647.28 279.241 645.2 279.241C643.614 279.241 642.236 279.566 641.066 280.216C639.896 280.866 638.999 281.776 638.375 282.946C637.777 284.116 637.478 285.52 637.478 287.158V298H635.528V277.642H637.4V283.297L637.127 282.673C637.751 281.061 638.778 279.8 640.208 278.89C641.638 277.954 643.393 277.486 645.473 277.486ZM669.608 298.156C667.71 298.156 665.994 297.727 664.46 296.869C662.952 295.985 661.756 294.763 660.872 293.203C659.988 291.643 659.546 289.849 659.546 287.821C659.546 285.767 659.988 283.973 660.872 282.439C661.756 280.879 662.952 279.67 664.46 278.812C665.994 277.928 667.71 277.486 669.608 277.486C671.402 277.486 673.014 277.902 674.444 278.734C675.9 279.566 677.044 280.749 677.876 282.283C678.734 283.817 679.163 285.663 679.163 287.821C679.163 289.927 678.747 291.76 677.915 293.32C677.083 294.88 675.939 296.076 674.483 296.908C673.053 297.74 671.428 298.156 669.608 298.156ZM669.725 296.401C671.285 296.401 672.676 296.05 673.898 295.348C675.146 294.62 676.121 293.606 676.823 292.306C677.551 291.006 677.915 289.511 677.915 287.821C677.915 286.105 677.551 284.61 676.823 283.336C676.121 282.036 675.146 281.035 673.898 280.333C672.676 279.605 671.285 279.241 669.725 279.241C668.165 279.241 666.761 279.605 665.513 280.333C664.291 281.035 663.316 282.036 662.588 283.336C661.886 284.61 661.535 286.105 661.535 287.821C661.535 289.511 661.886 291.006 662.588 292.306C663.316 293.606 664.291 294.62 665.513 295.348C666.761 296.05 668.165 296.401 669.725 296.401ZM677.954 298V291.331L678.305 287.782L677.915 284.233V269.062H679.865V298H677.954ZM688.086 298V277.642H690.036V298H688.086ZM689.061 272.689C688.619 272.689 688.242 272.533 687.93 272.221C687.618 271.909 687.462 271.545 687.462 271.129C687.462 270.687 687.618 270.31 687.93 269.998C688.242 269.686 688.619 269.53 689.061 269.53C689.529 269.53 689.906 269.686 690.192 269.998C690.504 270.284 690.66 270.648 690.66 271.09C690.66 271.532 690.504 271.909 690.192 272.221C689.906 272.533 689.529 272.689 689.061 272.689ZM723.605 277.486C725.243 277.486 726.66 277.811 727.856 278.461C729.078 279.085 730.027 280.047 730.703 281.347C731.379 282.621 731.717 284.207 731.717 286.105V298H729.767V286.261C729.767 283.973 729.208 282.231 728.09 281.035C726.972 279.839 725.412 279.241 723.41 279.241C721.876 279.241 720.55 279.566 719.432 280.216C718.314 280.866 717.456 281.776 716.858 282.946C716.26 284.116 715.961 285.52 715.961 287.158V298H714.011V286.261C714.011 283.973 713.452 282.231 712.334 281.035C711.216 279.839 709.656 279.241 707.654 279.241C706.12 279.241 704.794 279.566 703.676 280.216C702.558 280.866 701.7 281.776 701.102 282.946C700.504 284.116 700.205 285.52 700.205 287.158V298H698.255V277.642H700.127V283.258L699.854 282.634C700.452 281.048 701.453 279.8 702.857 278.89C704.261 277.954 705.951 277.486 707.927 277.486C709.955 277.486 711.658 278.006 713.036 279.046C714.44 280.06 715.324 281.581 715.688 283.609L715.025 283.336C715.571 281.594 716.598 280.19 718.106 279.124C719.614 278.032 721.447 277.486 723.605 277.486ZM748.037 298.156C745.983 298.156 744.163 297.714 742.577 296.83C741.017 295.946 739.782 294.724 738.872 293.164C737.988 291.604 737.546 289.823 737.546 287.821C737.546 285.793 737.962 284.012 738.794 282.478C739.652 280.918 740.822 279.696 742.304 278.812C743.786 277.928 745.45 277.486 747.296 277.486C749.142 277.486 750.793 277.915 752.249 278.773C753.731 279.631 754.888 280.84 755.72 282.4C756.578 283.934 757.007 285.715 757.007 287.743C757.007 287.821 756.994 287.912 756.968 288.016C756.968 288.094 756.968 288.185 756.968 288.289H738.989V286.768H755.915L755.135 287.509C755.161 285.923 754.823 284.506 754.121 283.258C753.445 281.984 752.522 280.996 751.352 280.294C750.182 279.566 748.83 279.202 747.296 279.202C745.788 279.202 744.436 279.566 743.24 280.294C742.07 280.996 741.147 281.984 740.471 283.258C739.795 284.506 739.457 285.936 739.457 287.548V287.899C739.457 289.563 739.821 291.045 740.549 292.345C741.303 293.619 742.33 294.62 743.63 295.348C744.93 296.05 746.412 296.401 748.076 296.401C749.376 296.401 750.585 296.167 751.703 295.699C752.847 295.231 753.809 294.516 754.589 293.554L755.72 294.841C754.836 295.933 753.718 296.765 752.366 297.337C751.04 297.883 749.597 298.156 748.037 298.156ZM772.984 277.486C774.648 277.486 776.091 277.811 777.313 278.461C778.561 279.085 779.523 280.047 780.199 281.347C780.901 282.621 781.252 284.207 781.252 286.105V298H779.302V286.261C779.302 283.973 778.717 282.231 777.547 281.035C776.403 279.839 774.791 279.241 772.711 279.241C771.125 279.241 769.747 279.566 768.577 280.216C767.407 280.866 766.51 281.776 765.886 282.946C765.288 284.116 764.989 285.52 764.989 287.158V298H763.039V277.642H764.911V283.297L764.638 282.673C765.262 281.061 766.289 279.8 767.719 278.89C769.149 277.954 770.904 277.486 772.984 277.486ZM795.208 298.156C793.414 298.156 792.036 297.662 791.074 296.674C790.138 295.686 789.67 294.334 789.67 292.618V273.196H791.62V292.423C791.62 293.723 791.945 294.724 792.595 295.426C793.245 296.128 794.181 296.479 795.403 296.479C796.677 296.479 797.73 296.102 798.562 295.348L799.381 296.713C798.861 297.207 798.224 297.571 797.47 297.805C796.742 298.039 795.988 298.156 795.208 298.156ZM785.926 279.319V277.642H798.094V279.319H785.926ZM812.052 298.156C810.102 298.156 808.36 297.714 806.826 296.83C805.318 295.946 804.109 294.724 803.199 293.164C802.315 291.604 801.873 289.823 801.873 287.821C801.873 285.793 802.315 284.012 803.199 282.478C804.109 280.918 805.318 279.696 806.826 278.812C808.36 277.928 810.102 277.486 812.052 277.486C814.002 277.486 815.744 277.928 817.278 278.812C818.812 279.696 820.021 280.918 820.905 282.478C821.789 284.012 822.231 285.793 822.231 287.821C822.231 289.823 821.789 291.604 820.905 293.164C820.021 294.724 818.812 295.946 817.278 296.83C815.744 297.714 814.002 298.156 812.052 298.156ZM812.052 296.401C813.612 296.401 815.016 296.05 816.264 295.348C817.512 294.62 818.487 293.606 819.189 292.306C819.891 291.006 820.242 289.511 820.242 287.821C820.242 286.105 819.891 284.61 819.189 283.336C818.487 282.036 817.512 281.035 816.264 280.333C815.016 279.605 813.612 279.241 812.052 279.241C810.492 279.241 809.088 279.605 807.84 280.333C806.618 281.035 805.643 282.036 804.915 283.336C804.213 284.61 803.862 286.105 803.862 287.821C803.862 289.511 804.213 291.006 804.915 292.306C805.643 293.606 806.618 294.62 807.84 295.348C809.088 296.05 810.492 296.401 812.052 296.401Z" fill="black"/>
<g clip-path="url(#clip0_109_1926)">
<path fill-rule="evenodd" clip-rule="evenodd" d="M991.78 194.22C991.487 193.927 991.013 193.927 990.72 194.22C990.427 194.513 990.427 194.987 990.72 195.28L994.439 199L990.72 202.72C990.427 203.013 990.427 203.487 990.72 203.78C991.013 204.073 991.487 204.073 991.78 203.78L995.5 200.061L999.22 203.78C999.513 204.073 999.987 204.073 1000.28 203.78C1000.57 203.487 1000.57 203.013 1000.28 202.72L996.561 199L1000.28 195.28C1000.57 194.987 1000.57 194.513 1000.28 194.22C999.987 193.927 999.513 193.927 999.22 194.22L995.5 197.939L991.78 194.22Z" fill="#666666"/>
</g>
<path d="M572 568C572 562.477 576.477 558 582 558H815C820.523 558 825 562.477 825 568V596C825 601.523 820.523 606 815 606H582C576.477 606 572 601.523 572 596V568Z" fill="#2A3342"/>
<path d="M572.5 568C572.5 562.753 576.753 558.5 582 558.5H815C820.247 558.5 824.5 562.753 824.5 568V596C824.5 601.247 820.247 605.5 815 605.5H582C576.753 605.5 572.5 601.247 572.5 596V568Z" stroke="black" stroke-opacity="0.3"/>
<path d="M602.127 586.58V589H592.267V574.8H601.947V577.22H595.027V580.64H601.007V582.88H595.027V586.58H602.127ZM607.039 579.88V589H604.279V574.8H606.479L613.819 584.16V574.82H616.579V589H614.279L607.039 579.88ZM630.153 577.22H625.613V589H622.873V577.22H618.333V574.8H630.153V577.22ZM631.916 589V574.8H638.196C638.849 574.8 639.449 574.933 639.996 575.2C640.556 575.467 641.036 575.827 641.436 576.28C641.849 576.733 642.162 577.24 642.376 577.8C642.602 578.36 642.716 578.933 642.716 579.52C642.716 580.12 642.609 580.7 642.396 581.26C642.196 581.807 641.902 582.287 641.516 582.7C641.129 583.113 640.676 583.433 640.156 583.66L643.396 589H640.356L637.436 584.24H634.676V589H631.916ZM634.676 581.82H638.136C638.482 581.82 638.789 581.72 639.056 581.52C639.322 581.307 639.536 581.027 639.696 580.68C639.856 580.333 639.936 579.947 639.936 579.52C639.936 579.067 639.842 578.673 639.656 578.34C639.469 577.993 639.229 577.72 638.936 577.52C638.656 577.32 638.349 577.22 638.016 577.22H634.676V581.82ZM649.076 574.8H651.876L657.096 589H654.256L652.936 585.46H647.976L646.676 589H643.836L649.076 574.8ZM652.436 583.52L650.476 577.66L648.436 583.52H652.436ZM658.654 589V574.8H664.934C665.587 574.8 666.187 574.933 666.734 575.2C667.294 575.467 667.774 575.827 668.174 576.28C668.587 576.733 668.9 577.24 669.114 577.8C669.34 578.36 669.454 578.933 669.454 579.52C669.454 580.12 669.347 580.7 669.134 581.26C668.934 581.807 668.64 582.287 668.254 582.7C667.867 583.113 667.414 583.433 666.894 583.66L670.134 589H667.094L664.174 584.24H661.414V589H658.654ZM661.414 581.82H664.874C665.22 581.82 665.527 581.72 665.794 581.52C666.06 581.307 666.274 581.027 666.434 580.68C666.594 580.333 666.674 579.947 666.674 579.52C666.674 579.067 666.58 578.673 666.394 578.34C666.207 577.993 665.967 577.72 665.674 577.52C665.394 577.32 665.087 577.22 664.754 577.22H661.414V581.82ZM686.619 586.58V589H676.759V574.8H686.439V577.22H679.519V580.64H685.499V582.88H679.519V586.58H686.619ZM700.351 589V579.68L696.711 586.62H695.171L691.531 579.68V589H688.771V574.8H691.731L695.931 582.88L700.171 574.8H703.111V589H700.351ZM710.02 581.8C710.02 580.933 710.174 580.087 710.48 579.26C710.8 578.42 711.26 577.66 711.86 576.98C712.46 576.287 713.194 575.74 714.06 575.34C714.927 574.927 715.914 574.72 717.02 574.72C718.327 574.72 719.454 575.007 720.4 575.58C721.36 576.153 722.074 576.9 722.54 577.82L720.42 579.28C720.18 578.747 719.867 578.327 719.48 578.02C719.094 577.7 718.68 577.48 718.24 577.36C717.8 577.227 717.367 577.16 716.94 577.16C716.247 577.16 715.64 577.3 715.12 577.58C714.614 577.86 714.187 578.227 713.84 578.68C713.494 579.133 713.234 579.64 713.06 580.2C712.9 580.76 712.82 581.32 712.82 581.88C712.82 582.507 712.92 583.113 713.12 583.7C713.32 584.273 713.6 584.787 713.96 585.24C714.334 585.68 714.774 586.033 715.28 586.3C715.8 586.553 716.367 586.68 716.98 586.68C717.42 586.68 717.867 586.607 718.32 586.46C718.774 586.313 719.194 586.08 719.58 585.76C719.967 585.44 720.267 585.027 720.48 584.52L722.74 585.82C722.46 586.527 722 587.127 721.36 587.62C720.734 588.113 720.027 588.487 719.24 588.74C718.454 588.993 717.674 589.12 716.9 589.12C715.887 589.12 714.96 588.913 714.12 588.5C713.28 588.073 712.554 587.513 711.94 586.82C711.34 586.113 710.867 585.327 710.52 584.46C710.187 583.58 710.02 582.693 710.02 581.8ZM730.476 589.1C729.436 589.1 728.489 588.9 727.636 588.5C726.796 588.1 726.069 587.56 725.456 586.88C724.856 586.187 724.389 585.413 724.056 584.56C723.722 583.693 723.556 582.807 723.556 581.9C723.556 580.953 723.729 580.053 724.076 579.2C724.436 578.333 724.922 577.567 725.536 576.9C726.162 576.22 726.896 575.687 727.736 575.3C728.589 574.9 729.522 574.7 730.536 574.7C731.562 574.7 732.496 574.907 733.336 575.32C734.189 575.733 734.916 576.287 735.516 576.98C736.116 577.673 736.582 578.447 736.916 579.3C737.249 580.153 737.416 581.033 737.416 581.94C737.416 582.873 737.242 583.773 736.896 584.64C736.549 585.493 736.062 586.26 735.436 586.94C734.822 587.607 734.089 588.133 733.236 588.52C732.396 588.907 731.476 589.1 730.476 589.1ZM726.356 581.9C726.356 582.513 726.449 583.107 726.636 583.68C726.822 584.253 727.089 584.767 727.436 585.22C727.796 585.66 728.229 586.013 728.736 586.28C729.256 586.533 729.842 586.66 730.496 586.66C731.162 586.66 731.756 586.527 732.276 586.26C732.796 585.98 733.229 585.613 733.576 585.16C733.922 584.693 734.182 584.18 734.356 583.62C734.542 583.047 734.636 582.473 734.636 581.9C734.636 581.287 734.536 580.7 734.336 580.14C734.149 579.567 733.876 579.06 733.516 578.62C733.169 578.167 732.736 577.813 732.216 577.56C731.709 577.293 731.136 577.16 730.496 577.16C729.816 577.16 729.216 577.3 728.696 577.58C728.189 577.847 727.762 578.207 727.416 578.66C727.069 579.113 726.802 579.62 726.616 580.18C726.442 580.74 726.356 581.313 726.356 581.9ZM742.293 579.88V589H739.533V574.8H741.733L749.073 584.16V574.82H751.833V589H749.533L742.293 579.88ZM765.407 577.22H760.867V589H758.127V577.22H753.587V574.8H765.407V577.22ZM769.701 574.8H772.501L777.721 589H774.881L773.561 585.46H768.601L767.301 589H764.461L769.701 574.8ZM773.061 583.52L771.101 577.66L769.061 583.52H773.061ZM788.571 577.22H784.031V589H781.291V577.22H776.751V574.8H788.571V577.22ZM796.061 589.1C795.021 589.1 794.075 588.9 793.221 588.5C792.381 588.1 791.655 587.56 791.041 586.88C790.441 586.187 789.975 585.413 789.641 584.56C789.308 583.693 789.141 582.807 789.141 581.9C789.141 580.953 789.315 580.053 789.661 579.2C790.021 578.333 790.508 577.567 791.121 576.9C791.748 576.22 792.481 575.687 793.321 575.3C794.175 574.9 795.108 574.7 796.121 574.7C797.148 574.7 798.081 574.907 798.921 575.32C799.775 575.733 800.501 576.287 801.101 576.98C801.701 577.673 802.168 578.447 802.501 579.3C802.835 580.153 803.001 581.033 803.001 581.94C803.001 582.873 802.828 583.773 802.481 584.64C802.135 585.493 801.648 586.26 801.021 586.94C800.408 587.607 799.675 588.133 798.821 588.52C797.981 588.907 797.061 589.1 796.061 589.1ZM791.941 581.9C791.941 582.513 792.035 583.107 792.221 583.68C792.408 584.253 792.675 584.767 793.021 585.22C793.381 585.66 793.815 586.013 794.321 586.28C794.841 586.533 795.428 586.66 796.081 586.66C796.748 586.66 797.341 586.527 797.861 586.26C798.381 585.98 798.815 585.613 799.161 585.16C799.508 584.693 799.768 584.18 799.941 583.62C800.128 583.047 800.221 582.473 800.221 581.9C800.221 581.287 800.121 580.7 799.921 580.14C799.735 579.567 799.461 579.06 799.101 578.62C798.755 578.167 798.321 577.813 797.801 577.56C797.295 577.293 796.721 577.16 796.081 577.16C795.401 577.16 794.801 577.3 794.281 577.58C793.775 577.847 793.348 578.207 793.001 578.66C792.655 579.113 792.388 579.62 792.201 580.18C792.028 580.74 791.941 581.313 791.941 581.9Z" fill="#F6F5FB"/>
<defs>
<clipPath id="clip0_109_1926">
<rect width="16" height="16" fill="white" transform="translate(987.5 191)"/>
</clipPath>
</defs>
</svg>
